<svg width="14" height="14" viewBox="0 0 14 14" fill="none" xmlns="http://www.w3.org/2000/svg">
<g clip-path="url(#clip0_754_5277)">
<path d="M11.6667 0H2.33333C1.04467 0 0 1.04467 0 2.33333V11.6667C0 12.9553 1.04467 14 2.33333 14H11.6667C12.9553 14 14 12.9553 14 11.6667V2.33333C14 1.04467 12.9553 0 11.6667 0Z" fill="#A7F175"/>
<path d="M6.58637 9.68214C5.97894 9.68214 5.59254 9.31365 5.59254 8.84628C5.59254 6.84621 10.8521 6.4458 10.8521 4.32177C10.8521 3.02601 9.35113 2.46753 7.43512 2.46753C6.26962 2.46753 4.95181 2.68325 3.72792 3.06924V5.60312C5.53153 4.28945 7.53545 3.72712 8.82625 3.72712C9.6379 3.72712 10.1886 3.95357 10.1886 4.35934C10.1886 6.03105 2.93488 5.76616 2.93488 9.37846C2.93488 10.7631 3.88693 11.5563 5.22638 11.5563C7.25242 11.5563 8.78489 9.5874 9.93138 7.18734L10.1637 7.27075C9.55985 8.73743 8.31035 10.3456 8.06698 11.3794H10.6754V6.03111H10.073C9.19853 7.93126 7.91713 9.6822 6.58654 9.6822" fill="black"/>
</g>
<defs>
<clipPath id="clip0_754_5277">
<rect width="14" height="14" fill="white"/>
</clipPath>
</defs>
</svg>
