<svg width="12" height="14" viewBox="0 0 12 14" fill="none" xmlns="http://www.w3.org/2000/svg">
<g clip-path="url(#clip0_765_55)">
<path d="M0 9.19633C0 9.19633 1.88871 8.27624 3.78449 8.27624L5.22024 3.84819C5.26978 3.63587 5.42549 3.49431 5.60243 3.49431C5.77937 3.49431 5.928 3.63587 5.98462 3.85527L7.41328 8.27675C9.66295 8.27675 11.1983 9.19684 11.1983 9.19684L7.97949 0.424656C7.89456 0.162785 7.73177 0 7.52652 0H3.67833C3.47308 0 3.32445 0.162785 3.22536 0.424656L0 9.19633Z" fill="#EEEEEE"/>
<path d="M3.07997 9.19684C2.81102 10.0815 3.00211 11.312 3.63859 11.8919V11.8707L3.65983 11.814C3.73768 11.4394 4.04202 11.2059 4.43128 11.22C4.79174 11.2271 4.99749 11.4182 5.04653 11.8353C5.06776 11.991 5.06776 12.1467 5.07484 12.3095V12.359C5.07484 12.7129 5.17393 13.0521 5.3721 13.3494C5.54904 13.6325 5.79676 13.8514 6.1289 14L6.11474 13.9717L6.10059 13.9151C5.85287 13.1724 6.02981 12.6563 6.68045 12.2175L6.87862 12.083L7.31743 11.7933C7.56943 11.6171 7.78066 11.3888 7.93687 11.124C8.09307 10.8591 8.19059 10.5638 8.22286 10.258C8.25825 9.98902 8.22286 9.72715 8.145 9.47286L8.03884 9.54364C7.05556 10.0669 5.93073 10.2514 4.84128 10.0391C4.18357 9.93948 3.54709 9.75597 3.07289 9.20391L3.07997 9.19684Z" fill="url(#paint0_linear_765_55)"/>
</g>
<defs>
<linearGradient id="paint0_linear_765_55" x1="2.95978" y1="13.9929" x2="9.12836" y2="11.0854" gradientUnits="userSpaceOnUse">
<stop stop-color="#D83333"/>
<stop offset="1" stop-color="#F041FF"/>
</linearGradient>
<clipPath id="clip0_765_55">
<rect width="11.1983" height="14" fill="white"/>
</clipPath>
</defs>
</svg>
