<svg width="14" height="14" viewBox="0 0 14 14" fill="none" xmlns="http://www.w3.org/2000/svg">
<g clip-path="url(#clip0_765_74)">
<path d="M0 0H11.76C12.3541 0 12.9238 0.235999 13.3439 0.656081C13.764 1.07616 14 1.64592 14 2.24V11.76C14 12.3541 13.764 12.9238 13.3439 13.3439C12.9238 13.764 12.3541 14 11.76 14H2.24C1.64592 14 1.07616 13.764 0.656081 13.3439C0.235999 12.9238 0 12.3541 0 11.76V0Z" fill="#663399"/>
<path d="M3.39664 11.5142V9.1202C3.39664 8.16545 3.99864 7.65245 4.90864 7.65245C5.80464 7.6382 6.36464 8.2367 6.33664 9.24845H5.30064C5.32864 8.8637 5.16064 8.5787 4.88064 8.59295C4.53064 8.59295 4.43264 8.8352 4.43264 9.2912V11.3717C4.43264 11.8134 4.57264 12.0272 4.88064 12.0414C5.20264 12.0414 5.32864 11.7137 5.30064 11.3432H6.33664C6.39264 12.3834 5.74864 12.9962 4.83864 12.9819C3.95664 12.9819 3.39664 12.4832 3.39664 11.5142ZM6.71464 11.3432H7.68064C7.69464 11.7992 7.83464 12.0842 8.14264 12.0842C8.45064 12.0842 8.56264 11.8989 8.56264 11.4714C8.56264 11.1152 8.40864 10.9157 8.03064 10.7304L7.66664 10.5594C7.02264 10.2459 6.75664 9.8612 6.75664 9.0917C6.75664 8.2367 7.28864 7.6382 8.15664 7.6382C9.02464 7.6382 9.48664 8.25095 9.50064 9.24845H8.56264C8.56264 8.8352 8.47864 8.5502 8.17064 8.5502C7.89064 8.5502 7.75064 8.6927 7.75064 9.04895C7.75064 9.4052 7.87664 9.5477 8.21264 9.6902L8.54864 9.84695C9.26264 10.1889 9.57064 10.6307 9.57064 11.4572C9.57064 12.4404 9.02464 12.9819 8.12864 12.9819C7.23264 12.9819 6.72864 12.3549 6.71464 11.3432ZM9.87864 11.3432H10.8586C10.8586 11.7992 11.0126 12.0842 11.3066 12.0842C11.6006 12.0842 11.7266 11.8989 11.7266 11.4714C11.7266 11.1152 11.5866 10.9157 11.1946 10.7304L10.8306 10.5594C10.1866 10.2459 9.93464 9.8612 9.93464 9.0917C9.93464 8.2367 10.4526 7.6382 11.3346 7.6382C12.2166 7.6382 12.6506 8.25095 12.6786 9.24845H11.7406C11.7266 8.8352 11.6426 8.5502 11.3346 8.5502C11.0546 8.5502 10.9286 8.6927 10.9286 9.04895C10.9286 9.4052 11.0406 9.5477 11.3766 9.6902L11.7266 9.84695C12.4266 10.1889 12.7346 10.6307 12.7346 11.4572C12.7346 12.4404 12.1886 12.9819 11.2926 12.9819C10.3966 12.9819 9.89264 12.3549 9.87864 11.3432Z" fill="white"/>
</g>
<defs>
<clipPath id="clip0_765_74">
<rect width="14" height="14" fill="white"/>
</clipPath>
</defs>
</svg>
