<svg width="14" height="14" viewBox="0 0 14 14" fill="none" xmlns="http://www.w3.org/2000/svg">
<g clip-path="url(#clip0_754_5269)">
<path d="M4.97656 14.1094C6.27813 14.1094 7.32812 13.0594 7.32812 11.7578V9.40625H4.97656C3.675 9.40625 2.625 10.4563 2.625 11.7578C2.625 13.0594 3.675 14.1094 4.97656 14.1094Z" fill="#0ACF83"/>
<path d="M2.625 7.05469C2.625 5.75313 3.675 4.70312 4.97656 4.70312H7.32812V9.40625H4.97656C3.675 9.40625 2.625 8.35625 2.625 7.05469Z" fill="#A259FF"/>
<path d="M2.625 2.35156C2.625 1.05 3.675 0 4.97656 0H7.32812V4.70312H4.97656C3.675 4.70312 2.625 3.65313 2.625 2.35156Z" fill="#F24E1E"/>
<path d="M7.32812 0H9.67969C10.9813 0 12.0312 1.05 12.0312 2.35156C12.0312 3.65313 10.9813 4.70312 9.67969 4.70312H7.32812V0Z" fill="#FF7262"/>
<path d="M12.0312 7.05469C12.0312 8.35625 10.9813 9.40625 9.67969 9.40625C8.37813 9.40625 7.32812 8.35625 7.32812 7.05469C7.32812 5.75313 8.37813 4.70312 9.67969 4.70312C10.9813 4.70312 12.0312 5.75313 12.0312 7.05469Z" fill="#1ABCFE"/>
</g>
<defs>
<clipPath id="clip0_754_5269">
<rect width="14" height="14" fill="white"/>
</clipPath>
</defs>
</svg>
