<svg width="48" height="48" viewBox="0 0 48 48" fill="none" xmlns="http://www.w3.org/2000/svg">
<path d="M40.5 39V15H16.5V13.5C16.5 11.0184 18.5184 9 21 9H25.5V0H21C17.4206 0.0031775 13.9886 1.42652 11.4576 3.95757C8.92652 6.48862 7.50318 9.92055 7.5 13.5V15H1.5V24H7.5V39H1.5V48H22.5V39H16.5V24H31.584V39H25.5V48H46.5V39H40.5Z" fill="#EEEEEE"/>
<path d="M36 9C38.4853 9 40.5 6.98528 40.5 4.5C40.5 2.01472 38.4853 0 36 0C33.5147 0 31.5 2.01472 31.5 4.5C31.5 6.98528 33.5147 9 36 9Z" fill="#EEEEEE"/>
</svg>
