<svg width="14" height="14" viewBox="0 0 14 14" fill="none" xmlns="http://www.w3.org/2000/svg">
<path d="M1.69017 5.5937L5.3092 12.4064C5.64872 13.0453 5.81813 13.3647 5.9994 13.5398C6.48114 14.0051 7.13718 14.0035 7.61684 13.536C7.79811 13.3601 7.96682 13.0399 8.30425 12.3987L5.74005 7.68073L7.0347 5.20793H4.39659L3.25672 3.11087H8.13275L9.76065 0H3.90648C1.62672 0 0.486147 -1.83951e-07 0.106884 0.956716C-0.272378 1.91343 0.382268 3.14019 1.69017 5.5937Z" fill="#17D1C6"/>
<path d="M13.8287 0.941285C14.2372 1.93195 13.5324 3.20191 12.1227 5.74107L9.32352 10.8016L7.66913 7.87748L11.9623 0C12.9823 0.08487 13.57 0.314019 13.8287 0.941285Z" fill="#17D1C6"/>
</svg>
