<svg width="16" height="14" viewBox="0 0 16 14" fill="none" xmlns="http://www.w3.org/2000/svg">
<g clip-path="url(#clip0_765_82)">
<path d="M13.5634 0.638615C11.9294 -0.379528 9.77779 -0.139078 7.85944 1.0671C5.94632 -0.138423 3.79342 -0.379528 2.16203 0.638615C-0.420018 2.25231 -0.733848 6.40809 1.46099 9.92049C3.07928 12.5111 5.61022 14.0278 7.86206 13.9996C10.1152 14.0278 12.6455 12.5104 14.2638 9.92049C16.4567 6.40809 16.1454 2.25231 13.5634 0.638615ZM2.64817 9.1808C2.19509 8.46318 1.85357 7.68094 1.63527 6.86082C1.44048 6.1492 1.36608 5.41001 1.41513 4.67384C1.51341 3.3766 2.04148 2.365 2.90238 1.8271C3.76393 1.28855 4.90197 1.2571 6.1147 1.73735C6.29903 1.8116 6.4792 1.89502 6.65522 1.98762C5.98061 2.60039 5.39451 3.30402 4.91377 4.07829C3.58048 6.21089 3.17428 8.58459 3.63945 10.4761C3.26893 10.0757 2.93682 9.64134 2.64751 9.17883L2.64817 9.1808ZM14.0908 6.86082C13.8713 7.68042 13.5296 8.46229 13.0773 9.18014C12.7883 9.64354 12.4564 10.0787 12.086 10.48C12.502 8.78376 12.219 6.7062 11.1995 4.75771C11.1835 4.72535 11.1607 4.69676 11.1328 4.67383C11.1049 4.65089 11.0725 4.63414 11.0376 4.62467C11.0028 4.6152 10.9663 4.61322 10.9306 4.61887C10.8949 4.62453 10.8609 4.63768 10.8307 4.65746L7.65175 6.64396C7.59347 6.68054 7.55206 6.73872 7.53659 6.80577C7.52111 6.87282 7.53284 6.94326 7.5692 7.00168L8.03568 7.74793C8.05368 7.77701 8.07725 7.80223 8.10506 7.82214C8.13286 7.84206 8.16433 7.85626 8.19766 7.86394C8.23098 7.87161 8.2655 7.87261 8.29921 7.86687C8.33292 7.86112 8.36516 7.84876 8.39406 7.83048L10.4546 6.54306C10.5208 6.74354 10.5876 6.9401 10.638 7.1432C10.832 7.85472 10.9067 8.59376 10.8575 9.32952C10.7592 10.6281 10.2312 11.639 9.37027 12.1776C8.92586 12.4489 8.41677 12.596 7.89613 12.6034H7.82995C7.30927 12.5963 6.80009 12.4492 6.35581 12.1776C5.49491 11.639 4.96618 10.6281 4.86856 9.32952C4.82059 8.59363 4.89475 7.85487 5.08804 7.1432C5.53437 5.49688 6.45756 4.01931 7.74151 2.89635C8.29569 2.41061 8.9264 2.01987 9.6081 1.73997C10.8169 1.25972 11.9576 1.29117 12.8185 1.82972C13.6807 2.36828 14.2087 3.37922 14.3064 4.67646C14.3552 5.41152 14.2828 6.14959 14.0908 6.86082Z" fill="#1ADBDA"/>
</g>
<defs>
<clipPath id="clip0_765_82">
<rect width="15.7242" height="14" fill="white"/>
</clipPath>
</defs>
</svg>
