<svg width="19" height="14" viewBox="0 0 19 14" fill="none" xmlns="http://www.w3.org/2000/svg">
<g clip-path="url(#clip0_754_5300)">
<path d="M3.04348 0C2.31702 0 1.62031 0.288586 1.10662 0.802273C0.592934 1.31596 0.304348 2.01267 0.304348 2.73913C0.304348 3.46559 0.592934 4.1623 1.10662 4.67599C1.62031 5.18967 2.31702 5.47826 3.04348 5.47826C3.76994 5.47826 4.46665 5.18967 4.98034 4.67599C5.49402 4.1623 5.78261 3.46559 5.78261 2.73913C5.78261 2.01267 5.49402 1.31596 4.98034 0.802273C4.46665 0.288586 3.76994 0 3.04348 0ZM8.82609 0V14H14.3043C13.255 14 12.2487 13.5832 11.5067 12.8412C10.7647 12.0992 10.3478 11.0928 10.3478 10.0435C10.3478 8.99414 10.7647 7.98779 11.5067 7.24579C12.2487 6.5038 13.255 6.08696 14.3043 6.08696C13.4972 6.08696 12.723 5.7663 12.1523 5.19554C11.5815 4.62478 11.2609 3.85066 11.2609 3.04348C11.2609 2.2363 11.5815 1.46218 12.1523 0.891414C12.723 0.320651 13.4972 0 14.3043 0H8.82609ZM14.3043 0V6.08696C15.1115 6.08696 15.8856 5.7663 16.4564 5.19554C17.0272 4.62478 17.3478 3.85066 17.3478 3.04348C17.3478 2.2363 17.0272 1.46218 16.4564 0.891414C15.8856 0.320651 15.1115 0 14.3043 0ZM14.3043 6.08696V14C14.8239 14 15.3384 13.8977 15.8184 13.6988C16.2985 13.5 16.7346 13.2086 17.102 12.8412C17.4694 12.4738 17.7609 12.0376 17.9597 11.5576C18.1585 11.0775 18.2609 10.5631 18.2609 10.0435C18.2609 8.99414 17.844 7.98779 17.102 7.24579C16.36 6.5038 15.3537 6.08696 14.3043 6.08696ZM8.44565 0.604131L0 13.9992H6.69565L8.44565 11.2297V0.604131Z" fill="#EEEEEE"/>
</g>
<defs>
<clipPath id="clip0_754_5300">
<rect width="18.2609" height="14" fill="white"/>
</clipPath>
</defs>
</svg>
