<svg width="13" height="14" viewBox="0 0 13 14" fill="none" xmlns="http://www.w3.org/2000/svg">
<g clip-path="url(#clip0_765_49)">
<path d="M1.1235 12.6005L0 0H12.345L11.22 12.5985L6.165 14L1.1235 12.6005Z" fill="#E44F26"/>
<path d="M6.1725 12.929L10.2575 11.7965L11.2185 1.0305H6.1725V12.929Z" fill="#F1662A"/>
<path d="M6.1725 5.7035H4.1275L3.9865 4.121H6.1725V2.5755H2.2975L2.714 7.249H6.1725V5.7035ZM6.1725 9.717L6.1655 9.719L4.4445 9.2545L4.3345 8.022H2.783L2.9995 10.448L6.1655 11.327L6.1725 11.325V9.717Z" fill="#EBEBEB"/>
<path d="M6.167 5.7035V7.249H8.07L7.891 9.2535L6.167 9.7185V11.3265L9.3355 10.448L9.3585 10.187L9.7215 6.1185L9.7595 5.7035H6.167ZM6.167 2.5755V4.121H9.9L10.0385 2.5755H6.167Z" fill="white"/>
</g>
<defs>
<clipPath id="clip0_765_49">
<rect width="12.345" height="14" fill="white"/>
</clipPath>
</defs>
</svg>
