<svg width="14" height="14" viewBox="0 0 14 14" fill="none" xmlns="http://www.w3.org/2000/svg">
<g clip-path="url(#clip0_765_77)">
<path d="M0 0H14V14H0V0Z" fill="#F5DE19"/>
<path d="M9.26164 11.0078C9.38112 11.2543 9.56649 11.4614 9.79645 11.6055C10.0264 11.7495 10.2916 11.8246 10.5616 11.8221C11.1066 11.8221 11.4551 11.5447 11.4551 11.1605C11.4551 10.7025 11.0971 10.5386 10.4971 10.2714L10.1681 10.1279C9.21814 9.71615 8.58814 9.20061 8.58814 8.11048C8.58814 7.10637 9.33814 6.34145 10.5146 6.34145C10.8955 6.31352 11.276 6.40031 11.6087 6.59099C11.9414 6.78168 12.2116 7.06782 12.3856 7.41376L11.3571 8.083C11.2901 7.91149 11.1734 7.76476 11.0226 7.66225C10.8718 7.55973 10.694 7.50626 10.5126 7.50893C10.4335 7.50087 10.3536 7.50967 10.278 7.53477C10.2024 7.55988 10.1328 7.60074 10.0736 7.65475C10.0144 7.70875 9.96685 7.77473 9.93406 7.84846C9.90127 7.92219 9.88393 8.00207 9.88314 8.083C9.88314 8.48454 10.1276 8.6474 10.6921 8.89729L11.0211 9.0408C12.1391 9.52887 12.7711 10.0261 12.7711 11.1442C12.7711 12.3499 11.8406 13.0104 10.5911 13.0104C10.1043 13.0417 9.61905 12.9291 9.19369 12.6861C8.76833 12.4431 8.42104 12.0801 8.19364 11.6409L9.26164 11.0078ZM4.61414 11.1238C4.82064 11.4969 5.00864 11.8124 5.46064 11.8124C5.89264 11.8124 6.16564 11.6404 6.16564 10.9712V6.41779H7.48114V10.989C7.48114 12.3753 6.68114 13.0064 5.51664 13.0064C5.10502 13.0293 4.69622 12.9249 4.34399 12.7069C3.99175 12.4889 3.71257 12.1675 3.54314 11.7849L4.61414 11.1238Z" fill="black"/>
</g>
<defs>
<clipPath id="clip0_765_77">
<rect width="14" height="14" fill="white"/>
</clipPath>
</defs>
</svg>
