<svg width="24" height="14" viewBox="0 0 24 14" fill="none" xmlns="http://www.w3.org/2000/svg">
<g clip-path="url(#clip0_765_99)">
<path d="M5.83333 4.66667C6.61111 1.55556 8.55556 0 11.6667 0C16.3333 0 16.9167 3.5 19.25 4.08333C20.8056 4.47222 22.1667 3.88889 23.3333 2.33333C22.5556 5.44444 20.6111 7 17.5 7C12.8333 7 12.25 3.5 9.91667 2.91667C8.36111 2.52778 7 3.11111 5.83333 4.66667ZM0 11.6667C0.777778 8.55556 2.72222 7 5.83333 7C10.5 7 11.0833 10.5 13.4167 11.0833C14.9722 11.4722 16.3333 10.8889 17.5 9.33333C16.7222 12.4444 14.7778 14 11.6667 14C7 14 6.41667 10.5 4.08333 9.91667C2.52778 9.52778 1.16667 10.1111 0 11.6667Z" fill="#44A8B3"/>
</g>
<defs>
<clipPath id="clip0_765_99">
<rect width="23.3333" height="14" fill="white"/>
</clipPath>
</defs>
</svg>
