<svg width="14" height="14" viewBox="0 0 14 14" fill="none" xmlns="http://www.w3.org/2000/svg">
<g clip-path="url(#clip0_765_91)">
<path d="M13.344 0H0.656C0.293701 0 0 0.293701 0 0.656V13.344C0 13.7063 0.293701 14 0.656 14H13.344C13.7063 14 14 13.7063 14 13.344V0.656C14 0.293701 13.7063 0 13.344 0Z" fill="#3178C6"/>
<path fill-rule="evenodd" clip-rule="evenodd" d="M7.97964 10.9488V12.5102C8.25838 12.6501 8.55541 12.7487 8.86164 12.8028C9.21556 12.8692 9.57477 12.9019 9.93464 12.9005C10.2854 12.9021 10.6353 12.8661 10.9786 12.7931C11.2869 12.7298 11.581 12.6091 11.8461 12.4369C12.0923 12.2752 12.2952 12.0538 12.4366 11.7926C12.6899 11.2517 12.7233 10.631 12.5296 10.0653C12.448 9.85365 12.3262 9.66048 12.1711 9.4968C12.005 9.32251 11.816 9.17232 11.6096 9.05047C11.3722 8.90886 11.1254 8.78405 10.8711 8.67692C10.6711 8.59244 10.4911 8.51033 10.3311 8.4306C10.189 8.36134 10.053 8.27978 9.92464 8.18682C9.82416 8.11498 9.73684 8.02575 9.66664 7.9232C9.60633 7.82989 9.57481 7.72036 9.57614 7.60868C9.57484 7.50586 9.60298 7.40488 9.65714 7.31808C9.716 7.22725 9.7945 7.15135 9.88664 7.09619C9.99913 7.02837 10.1217 6.97972 10.2496 6.95216C10.4065 6.91663 10.5669 6.89956 10.7276 6.90127C10.8628 6.90183 10.9978 6.91169 11.1316 6.93079C11.2763 6.95018 11.4193 6.98029 11.5596 7.02087C11.7025 7.06118 11.8422 7.11221 11.9776 7.17354C12.109 7.23328 12.2347 7.30517 12.3531 7.38831V5.93125C12.1067 5.83631 11.8511 5.76808 11.5906 5.72768C11.2761 5.68104 10.9585 5.65909 10.6406 5.66203C10.2932 5.66028 9.9468 5.70043 9.60864 5.78163C9.30288 5.8523 9.01221 5.97868 8.75064 6.15467C8.50755 6.31962 8.30678 6.54142 8.16514 6.80152C8.01511 7.09041 7.94088 7.41384 7.94964 7.74049C7.93909 8.17238 8.07881 8.59418 8.34414 8.93138C8.67024 9.30498 9.08143 9.5914 9.54164 9.76552C9.75164 9.85373 9.94748 9.94008 10.1291 10.0246C10.293 10.0989 10.4505 10.1869 10.6001 10.2877C10.7205 10.3678 10.8264 10.4686 10.9131 10.5854C10.9892 10.6916 11.0295 10.8199 11.0281 10.9513C11.0288 11.0498 11.004 11.1467 10.9561 11.2323C10.9025 11.3238 10.8279 11.4008 10.7386 11.4567C10.6264 11.5261 10.5038 11.5763 10.3756 11.6053C10.2086 11.6432 10.0378 11.6611 9.86664 11.6587C9.53082 11.6578 9.1977 11.5976 8.88214 11.4806C8.55267 11.3593 8.24706 11.1792 7.97964 10.9488ZM5.40264 7.06158H7.40264V5.77552H1.82614V7.06158H3.81714V12.7891H5.40264V7.06158Z" fill="white"/>
</g>
<defs>
<clipPath id="clip0_765_91">
<rect width="14" height="14" fill="white"/>
</clipPath>
</defs>
</svg>
