<svg width="24" height="14" viewBox="0 0 24 14" fill="none" xmlns="http://www.w3.org/2000/svg">
<g clip-path="url(#clip0_765_84)">
<path d="M21.3115 11.5995H2.14398C0.95288 11.5995 0 10.6466 0 9.4555V2.12565C0 0.95288 0.95288 0 2.14398 0H21.3298C22.5026 0 23.4738 0.95288 23.4738 2.14398V9.47382C23.4555 10.6466 22.5026 11.5995 21.3115 11.5995Z" fill="#7F54B3"/>
<path d="M2.5288 9.32723C2.5288 9.32723 3.04188 11.4895 4.08639 10.0419C5.13089 8.59424 6.13874 6.32199 6.13874 6.32199C6.13874 6.32199 6.21204 5.75393 6.50524 7C6.79843 8.24607 8.06283 9.93194 8.06283 9.93194C8.06283 9.93194 9.21728 11.3796 9.69372 9.85864C9.51047 7.84293 10.2068 4.17801 10.9215 2.41885C11.2147 0.861256 9.58377 1.30105 9.43717 1.66754C9.29058 2.03403 8.28272 4.37958 8.20942 6.83508C8.20942 6.83508 7.34817 4.48953 7.27487 3.6466C7.20157 2.78534 6.30366 2.56544 5.79058 3.39005C5.27749 4.21466 3.7199 7.40314 3.7199 7.40314L2.71204 2.19895C2.71204 2.19895 1.70419 0.861257 1.1178 2.49215C1.1178 2.49215 2.1623 8.88743 2.5288 9.32723ZM15.9424 3.6466C14.3848 1.0445 12.0759 3.02356 12.0759 3.02356C12.0759 3.02356 10.3168 5.05759 11.1047 7.82461C12.3691 10.555 14.1466 9.34555 14.623 9.12565C15.1178 8.88743 17.2068 6.50524 15.9424 3.6466ZM14.7513 5.93717C14.7513 7.01832 13.8534 8.02618 13.1204 7.80628C12.7173 7.56806 12.4607 6.9267 12.4607 5.82722C12.8272 4.04974 13.6335 3.81152 14.055 3.84817C14.8429 4.26963 14.8063 5.20419 14.7513 5.93717ZM21.788 3.6466C20.2304 1.0445 17.9215 3.02356 17.9215 3.02356C17.9215 3.02356 16.1623 5.05759 16.9503 7.82461C18.2147 10.555 19.9921 9.34555 20.4686 9.12565C20.945 8.88743 23.0524 6.50524 21.788 3.6466ZM20.5969 5.93717C20.5969 7.01832 19.699 8.02618 18.966 7.80628C18.5628 7.56806 18.3063 6.9267 18.3063 5.82722C18.6728 4.04974 19.4791 3.81152 19.9005 3.84817C20.6702 4.26963 20.6335 5.20419 20.5969 5.93717Z" fill="white"/>
<path d="M11.233 11.5995L15.3194 14L14.4581 11.5995L12.1126 10.9398L11.233 11.5995Z" fill="#7F54B3"/>
</g>
<defs>
<clipPath id="clip0_765_84">
<rect width="23.4555" height="14" fill="white"/>
</clipPath>
</defs>
</svg>
