<svg width="14" height="14" viewBox="0 0 14 14" fill="none" xmlns="http://www.w3.org/2000/svg">
<g clip-path="url(#clip0_765_88)">
<path d="M7 0C3.143 0 0 3.143 0 7C0 10.857 3.143 14 7 14C10.857 14 14 10.857 14 7C14 3.143 10.857 0 7 0ZM0.707 7C0.707 6.09 0.903 5.222 1.253 4.438L4.256 12.663C2.156 11.641 0.707 9.492 0.707 7ZM7 13.293C6.384 13.293 5.789 13.202 5.222 13.034L7.112 7.546L9.044 12.845C9.058 12.873 9.072 12.908 9.086 12.929C8.435 13.167 7.735 13.293 7 13.293ZM7.868 4.046C8.246 4.025 8.589 3.983 8.589 3.983C8.925 3.941 8.89 3.444 8.547 3.465C8.547 3.465 7.525 3.542 6.867 3.542C6.251 3.542 5.208 3.465 5.208 3.465C4.872 3.451 4.83 3.969 5.173 3.99C5.173 3.99 5.495 4.032 5.831 4.053L6.811 6.741L5.432 10.871L3.143 4.046C3.521 4.032 3.864 3.99 3.864 3.99C4.2 3.948 4.165 3.451 3.822 3.472C3.822 3.472 2.8 3.549 2.142 3.549C2.023 3.549 1.883 3.549 1.736 3.542C2.87 1.834 4.802 0.707 7 0.707C8.638 0.707 10.129 1.33 11.249 2.359C11.221 2.359 11.193 2.352 11.165 2.352C10.549 2.352 10.108 2.891 10.108 3.472C10.108 3.99 10.409 4.431 10.724 4.949C10.962 5.369 11.242 5.908 11.242 6.685C11.242 7.224 11.032 7.847 10.766 8.722L10.136 10.822L7.868 4.046ZM12.523 3.983C13.3089 5.42202 13.5021 7.11095 13.0615 8.69028C12.6209 10.2696 11.5813 11.6146 10.164 12.439L12.089 6.881C12.446 5.985 12.565 5.264 12.565 4.627C12.565 4.396 12.551 4.179 12.523 3.983Z" fill="#EEEEEE"/>
</g>
<defs>
<clipPath id="clip0_765_88">
<rect width="14" height="14" fill="white"/>
</clipPath>
</defs>
</svg>
