<svg width="13" height="14" viewBox="0 0 13 14" fill="none" xmlns="http://www.w3.org/2000/svg">
<g clip-path="url(#clip0_775_3)">
<path d="M2.64844 1.70312H8.04688L7.84375 2.26562H2.64844C2.07552 2.26562 1.58464 2.47135 1.17578 2.88281C0.766927 3.29427 0.5625 3.78646 0.5625 4.35938V10.3828C0.5625 10.8776 0.720052 11.319 1.03516 11.707C1.35026 12.0951 1.75 12.3385 2.23438 12.4375C2.35417 12.4635 2.60938 12.4766 3 12.4766V13.0391H2.64844C1.91927 13.0391 1.29557 12.7786 0.777344 12.2578C0.259115 11.737 0 11.112 0 10.3828V4.35938C0 3.63021 0.259115 3.00521 0.777344 2.48438C1.29557 1.96354 1.91927 1.70312 2.64844 1.70312ZM9.29688 0H11.2266L7.46094 10.1094C7.34115 10.4271 7.23568 10.6966 7.14453 10.918C7.05339 11.1393 6.9362 11.3945 6.79297 11.6836C6.64974 11.9727 6.50911 12.2161 6.37109 12.4141C6.23307 12.612 6.0651 12.8164 5.86719 13.0273C5.66927 13.2383 5.46224 13.4076 5.24609 13.5352C5.02995 13.6628 4.78125 13.7695 4.5 13.8555C4.21875 13.9414 3.91667 13.9896 3.59375 14V12.4766C4.44271 12.3411 5.01562 11.8672 5.3125 11.0547C5.41667 10.7839 5.46875 10.5104 5.46875 10.2344C5.46875 9.95312 5.41667 9.67708 5.3125 9.40625L3.08594 3.67969H4.86719L6.32812 8.25L9.29688 0ZM13 4.35938V13.0391H6.78906C6.98177 12.7526 7.09896 12.5625 7.14062 12.4688H12.4375V4.35938C12.4375 3.91667 12.3086 3.51302 12.0508 3.14844C11.793 2.78385 11.4557 2.52604 11.0391 2.375L11.2344 1.85156C11.7604 2.02865 12.1862 2.35026 12.5117 2.81641C12.8372 3.28255 13 3.79688 13 4.35938Z" fill="#EEEEEE"/>
</g>
<defs>
<clipPath id="clip0_775_3">
<rect width="13" height="14" fill="white"/>
</clipPath>
</defs>
</svg>
