<?xml version="1.0" encoding="UTF-8" standalone="no"?>
<!DOCTYPE svg PUBLIC "-//W3C//DTD SVG 1.1//EN" "http://www.w3.org/Graphics/SVG/1.1/DTD/svg11.dtd">
<svg width="100%" height="100%" viewBox="0 0 801 801" version="1.1" xmlns="http://www.w3.org/2000/svg" xmlns:xlink="http://www.w3.org/1999/xlink" xml:space="preserve" xmlns:serif="http://www.serif.com/" style="fill-rule:evenodd;clip-rule:evenodd;stroke-linecap:round;stroke-linejoin:round;stroke-miterlimit:1.5;">
    <g transform="matrix(1,0,0,1,-3239.583333,-1239.583333)">
        <g id="JM-Web-Designer---Box--Dark-Theme-" serif:id="JM Web Designer - Box (Dark Theme)" transform="matrix(1,0,0,1,-260,-180)">
            <g transform="matrix(1.428571,0,0,1.818182,-1571.428571,-1380)">
                <rect x="3550" y="1540" width="560" height="440" style="fill:rgb(238,238,238);stroke:black;stroke-opacity:0;stroke-width:0.51px;"/>
            </g>
            <g id="JM-Web-Designer" serif:id="JM Web Designer" transform="matrix(0.325448,0,0,0.325448,2533.120205,814.146419)">
                <g transform="matrix(5.70484,0,0,2.288481,-2926.398667,-517.921799)">
                    <path d="M1270.219,1624.624L1282.49,1624.624L1282.49,1633.364L1273.725,1633.364L1273.725,1646.473L1280.737,1646.473L1280.737,1655.212L1273.725,1655.212L1273.725,1668.321L1282.49,1668.321L1282.49,1677.061L1270.219,1677.061L1270.219,1624.624Z" style="fill:rgb(19,19,19);fill-rule:nonzero;"/>
                </g>
                <g transform="matrix(5.70484,0,0,2.288481,-2526.398667,-517.921799)">
                    <path d="M1270.219,1624.624L1282.49,1624.624L1282.49,1633.364L1273.725,1633.364L1273.725,1646.473L1280.737,1646.473L1280.737,1655.212L1273.725,1655.212L1273.725,1668.321L1282.49,1668.321L1282.49,1677.061L1270.219,1677.061L1270.219,1624.624Z" style="fill:rgb(19,19,19);fill-rule:nonzero;"/>
                </g>
                <g transform="matrix(1.041894,0,0,1.045455,419.180328,288.181818)">
                    <path d="M3300,2900L3300,2460L3375,2460L3450,2533.333L3525,2460L3600,2460L3600,2900L3525,2900L3525,2570L3450,2643.333L3375,2570L3375,2900L3300,2900Z" style="fill:rgb(19,19,19);"/>
                </g>
                <g transform="matrix(1,0,0,1,1940,1600)">
                    <rect x="2560" y="1600" width="20" height="120" style="fill:rgb(19,19,19);"/>
                </g>
                <g transform="matrix(3.907104,0,0,3.833333,-8201.311475,-3810)">
                    <path d="M3000,1760L3000,1740L3070,1740L3070,1825C3070,1844.317 3054.317,1860 3035,1860C3015.683,1860 3000,1844.317 3000,1825L3000,1790L3020,1790L3020,1825C3020,1833.279 3026.721,1840 3035,1840C3043.279,1840 3050,1833.279 3050,1825L3050,1760L3000,1760Z" style="fill:rgb(19,19,19);"/>
                </g>
                <g transform="matrix(1,0,0,1,1980,1460)">
                    <path d="M2630,1790L2630,1860L2595,1860C2575.683,1860 2560,1844.317 2560,1825L2560,1775C2560,1769.633 2561.21,1764.547 2563.373,1760C2568.994,1748.179 2581.05,1740 2595,1740L2630,1740L2630,1760L2600,1760C2588.962,1760 2580,1768.962 2580,1780L2580,1820C2580,1831.038 2588.962,1840 2600,1840L2610,1840L2610,1810L2600,1810L2600,1790L2630,1790Z" style="fill:rgb(19,19,19);"/>
                </g>
                <g transform="matrix(1,0,0,1,2070,1740)">
                    <path d="M2210,1540C2210,1551.038 2201.038,1560 2190,1560L2180,1560L2180,1480L2190,1480C2201.038,1480 2210,1488.962 2210,1500M2210,1500L2210,1540M2230,1545C2230,1564.317 2214.317,1580 2195,1580L2160,1580L2160,1460L2195,1460C2214.317,1460 2230,1475.683 2230,1495L2230,1545Z" style="fill:rgb(19,19,19);"/>
                </g>
                <g transform="matrix(1,0,0,1,2010,1460)">
                    <path d="M2470,1775L2470,1780L2450,1780L2450,1775C2450,1766.721 2443.279,1760 2435,1760C2426.721,1760 2420,1766.721 2420,1775C2420,1783.279 2426.721,1790 2435,1790C2444.528,1790 2453.171,1793.815 2459.485,1800C2465.972,1806.355 2470,1815.211 2470,1825C2470,1844.317 2454.317,1860 2435,1860C2415.683,1860 2400,1844.317 2400,1825L2400,1820L2420,1820L2420,1825C2420,1833.279 2426.721,1840 2435,1840C2443.279,1840 2450,1833.279 2450,1825C2450,1816.721 2443.279,1810 2435,1810C2425.472,1810 2416.829,1806.185 2410.515,1800C2404.028,1793.645 2400,1784.789 2400,1775C2400,1755.683 2415.683,1740 2435,1740C2454.317,1740 2470,1755.683 2470,1775Z" style="fill:rgb(19,19,19);"/>
                </g>
                <g transform="matrix(1,0,0,1,1990,1460)">
                    <path d="M2660,1788L2660,1860L2640,1860L2640,1740L2660,1740L2690,1812L2690,1740L2710,1740L2710,1860L2690,1860L2660,1788Z" style="fill:rgb(19,19,19);"/>
                </g>
                <g transform="matrix(1,0,0,1,1930,1740)">
                    <path d="M2950,1495C2950,1509.683 2940.939,1522.267 2928.108,1527.459L2950,1580L2930,1580L2909.167,1530L2900,1530L2900,1580L2880,1580L2880,1460L2915,1460C2934.317,1460 2950,1475.683 2950,1495ZM2915,1480L2900,1480L2900,1510L2915,1510C2916.908,1510 2918.734,1509.643 2920.413,1508.992C2924.483,1507.414 2927.696,1504.111 2929.151,1499.982C2929.701,1498.423 2930,1496.746 2930,1495C2930,1486.721 2923.279,1480 2915,1480Z" style="fill:rgb(19,19,19);"/>
                </g>
                <g transform="matrix(2.333333,0,0,2.333333,-2863.333333,-546.666667)">
                    <path d="M3100,1520L3090,1580L3060,1580L3040,1460L3060,1460L3075,1560L3090,1460L3110,1460L3125,1560L3140,1460L3160,1460L3140,1580L3110,1580L3100,1520Z" style="fill:rgb(19,19,19);"/>
                </g>
                <g transform="matrix(13.311293,0,0,5.339789,-12378.263557,-5815.150864)">
                    <path d="M1270.219,1624.624L1282.49,1624.624L1282.49,1633.364L1273.725,1633.364L1273.725,1646.473L1280.737,1646.473L1280.737,1655.212L1273.725,1655.212L1273.725,1668.321L1282.49,1668.321L1282.49,1677.061L1270.219,1677.061L1270.219,1624.624Z" style="fill:rgb(19,19,19);fill-rule:nonzero;"/>
                </g>
                <g transform="matrix(2.333333,0,0,2.333333,-2866.666667,-546.666667)">
                    <path d="M3285,1460C3304.317,1460 3320,1475.683 3320,1495C3320,1504.789 3315.972,1513.645 3309.485,1520C3315.972,1526.355 3320,1535.211 3320,1545C3320,1564.317 3304.317,1580 3285,1580L3250,1580L3250,1460L3285,1460ZM3285,1480L3270,1480L3270,1510L3285,1510C3293.279,1510 3300,1503.279 3300,1495C3300,1486.721 3293.279,1480 3285,1480ZM3270,1530L3270,1560L3285,1560C3293.279,1560 3300,1553.279 3300,1545C3300,1536.721 3293.279,1530 3285,1530L3270,1530Z" style="fill:rgb(19,19,19);"/>
                </g>
            </g>
        </g>
    </g>
</svg>
