<?xml version="1.0" encoding="UTF-8" standalone="no"?>
<!DOCTYPE svg PUBLIC "-//W3C//DTD SVG 1.1//EN" "http://www.w3.org/Graphics/SVG/1.1/DTD/svg11.dtd">
<svg width="100%" height="100%" viewBox="0 0 1360 460" version="1.1" xmlns="http://www.w3.org/2000/svg" xmlns:xlink="http://www.w3.org/1999/xlink" xml:space="preserve" xmlns:serif="http://www.serif.com/" style="fill-rule:evenodd;clip-rule:evenodd;stroke-linejoin:round;stroke-miterlimit:2;">
    <g transform="matrix(1,0,0,1,-3520,-2960)">
        <g id="JM-Web-Developer--Black-" serif:id="JM Web Developer (Black)" transform="matrix(1,0,0,1,0,-420)">
            <g>
                <g transform="matrix(4.145628,0,0,2.293853,-928.200662,-6.628357)">
                    <path d="M1293.298,1624.615L1289.546,1676.929L1283.918,1676.929L1280.165,1624.615L1283.918,1624.615L1286.732,1668.21L1289.546,1624.615L1293.298,1624.615Z" style="fill:rgb(238,238,238);fill-rule:nonzero;"/>
                </g>
                <g transform="matrix(4.437098,0,0,2.288481,-1331.643408,2.078201)">
                    <path d="M1270.219,1624.624L1282.49,1624.624L1282.49,1633.364L1273.725,1633.364L1273.725,1646.473L1280.737,1646.473L1280.737,1655.212L1273.725,1655.212L1273.725,1668.321L1282.49,1668.321L1282.49,1677.061L1270.219,1677.061L1270.219,1624.624Z" style="fill:rgb(238,238,238);fill-rule:nonzero;"/>
                </g>
                <g transform="matrix(4.437098,0,0,2.288481,-1182.754519,2.078201)">
                    <path d="M1270.219,1624.624L1282.49,1624.624L1282.49,1633.364L1273.725,1633.364L1273.725,1646.473L1280.737,1646.473L1280.737,1655.212L1273.725,1655.212L1273.725,1668.321L1282.49,1668.321L1282.49,1677.061L1270.219,1677.061L1270.219,1624.624Z" style="fill:rgb(238,238,238);fill-rule:nonzero;"/>
                </g>
                <g transform="matrix(4.437098,0,0,2.288481,-884.976741,2.078201)">
                    <path d="M1270.219,1624.624L1282.49,1624.624L1282.49,1633.364L1273.725,1633.364L1273.725,1646.473L1280.737,1646.473L1280.737,1655.212L1273.725,1655.212L1273.725,1668.321L1282.49,1668.321L1282.49,1677.061L1270.219,1677.061L1270.219,1624.624Z" style="fill:rgb(238,238,238);fill-rule:nonzero;"/>
                </g>
                <g transform="matrix(3.599909,0,0,2.288481,-162.00419,2.078201)">
                    <path d="M1302.75,1624.624L1307.071,1624.624L1307.071,1668.321L1317.874,1668.321L1317.874,1677.061L1302.75,1677.061L1302.75,1624.624Z" style="fill:rgb(238,238,238);fill-rule:nonzero;"/>
                </g>
                <g transform="matrix(0.777778,0,0,1,2550,2260)">
                    <path d="M2210,1540C2210,1551.038 2201.038,1560 2190,1560L2180,1560L2180,1480L2190,1480C2201.038,1480 2210,1488.962 2210,1500M2210,1500L2210,1540M2230,1545C2230,1564.317 2214.317,1580 2195,1580L2160,1580L2160,1460L2195,1460C2214.317,1460 2230,1475.683 2230,1495L2230,1545Z" style="fill:rgb(238,238,238);"/>
                </g>
                <g transform="matrix(0.777778,0,0,1,2561.111111,2260)">
                    <path d="M2720,1580L2720,1460L2755,1460C2774.317,1460 2790,1475.683 2790,1495C2790,1514.317 2774.317,1530 2755,1530L2740,1530L2740,1580L2720,1580ZM2755,1480L2740,1480L2740,1510L2755,1510C2763.279,1510 2770,1503.279 2770,1495C2770,1486.721 2763.279,1480 2755,1480Z" style="fill:rgb(238,238,238);"/>
                </g>
                <g transform="matrix(0.777778,0,0,1,2548.888889,2260)">
                    <path d="M2643.373,1560C2641.21,1555.453 2640,1550.367 2640,1545L2640,1495C2640,1489.633 2641.21,1484.547 2643.373,1480C2646.832,1472.727 2652.727,1466.832 2660,1463.373C2664.547,1461.21 2669.633,1460 2675,1460C2680.367,1460 2685.453,1461.21 2690,1463.373C2697.273,1466.832 2703.168,1472.727 2706.627,1480C2708.79,1484.547 2710,1489.633 2710,1495L2710,1545C2710,1550.367 2708.79,1555.453 2706.627,1560C2703.168,1567.273 2697.273,1573.168 2690,1576.627C2685.453,1578.79 2680.367,1580 2675,1580C2669.633,1580 2664.547,1578.79 2660,1576.627C2652.727,1573.168 2646.832,1567.273 2643.373,1560ZM2675,1560C2683.279,1560 2690,1553.279 2690,1545L2690,1495C2690,1486.721 2683.279,1480 2675,1480C2666.721,1480 2660,1486.721 2660,1495L2660,1545C2660,1553.279 2666.721,1560 2675,1560Z" style="fill:rgb(238,238,238);"/>
                </g>
                <g transform="matrix(0.777778,0,0,1,2585.555556,2260)">
                    <path d="M2950,1495C2950,1509.683 2940.939,1522.267 2928.108,1527.459L2950,1580L2930,1580L2909.167,1530L2900,1530L2900,1580L2880,1580L2880,1460L2915,1460C2934.317,1460 2950,1475.683 2950,1495ZM2915,1480L2900,1480L2900,1510L2915,1510C2916.908,1510 2918.734,1509.643 2920.413,1508.992C2924.483,1507.414 2927.696,1504.111 2929.151,1499.982C2929.701,1498.423 2930,1496.746 2930,1495C2930,1486.721 2923.279,1480 2915,1480Z" style="fill:rgb(238,238,238);"/>
                </g>
                <g transform="matrix(1.041894,0,0,1.045455,419.180328,808.181818)">
                    <path d="M3300,2900L3300,2460L3375,2460L3450,2533.333L3525,2460L3600,2460L3600,2900L3525,2900L3525,2570L3450,2643.333L3375,2570L3375,2900L3300,2900Z" style="fill:rgb(238,238,238);"/>
                </g>
                <g transform="matrix(3.907104,0,0,3.833333,-8201.311475,-3290)">
                    <path d="M3000,1760L3000,1740L3070,1740L3070,1825C3070,1844.317 3054.317,1860 3035,1860C3015.683,1860 3000,1844.317 3000,1825L3000,1790L3020,1790L3020,1825C3020,1833.279 3026.721,1840 3035,1840C3043.279,1840 3050,1833.279 3050,1825L3050,1760L3000,1760Z" style="fill:rgb(238,238,238);"/>
                </g>
                <g transform="matrix(2.333333,0,0,2.333333,-2863.333333,-26.666667)">
                    <path d="M3100,1520L3090,1580L3060,1580L3040,1460L3060,1460L3075,1560L3090,1460L3110,1460L3125,1560L3140,1460L3160,1460L3140,1580L3110,1580L3100,1520Z" style="fill:rgb(238,238,238);"/>
                </g>
                <g transform="matrix(13.311293,0,0,5.339789,-12378.263557,-5295.150864)">
                    <path d="M1270.219,1624.624L1282.49,1624.624L1282.49,1633.364L1273.725,1633.364L1273.725,1646.473L1280.737,1646.473L1280.737,1655.212L1273.725,1655.212L1273.725,1668.321L1282.49,1668.321L1282.49,1677.061L1270.219,1677.061L1270.219,1624.624Z" style="fill:rgb(238,238,238);fill-rule:nonzero;"/>
                </g>
                <g transform="matrix(2.333333,0,0,2.333333,-2866.666667,-26.666667)">
                    <path d="M3285,1460C3304.317,1460 3320,1475.683 3320,1495C3320,1504.789 3315.972,1513.645 3309.485,1520C3315.972,1526.355 3320,1535.211 3320,1545C3320,1564.317 3304.317,1580 3285,1580L3250,1580L3250,1460L3285,1460ZM3285,1480L3270,1480L3270,1510L3285,1510C3293.279,1510 3300,1503.279 3300,1495C3300,1486.721 3293.279,1480 3285,1480ZM3270,1530L3270,1560L3285,1560C3293.279,1560 3300,1553.279 3300,1545C3300,1536.721 3293.279,1530 3285,1530L3270,1530Z" style="fill:rgb(238,238,238);"/>
                </g>
            </g>
        </g>
    </g>
</svg>
